# MagicaVoxel @ Ephtracy

# material
mtllib PacMan-01.mtl
usemtl palette

# normals
vn -1 0 0
vn 1 0 0
vn 0 0 1
vn 0 0 -1
vn 0 -1 0
vn 0 1 0

# texcoords
vt 0.0175781 0.5
vt 0.970703 0.5
vt 0.974609 0.5
vt 0.978516 0.5
vt 0.982422 0.5

# verts
v -10 4 2.5
v -10 4 -2.5
v -10 6 2.5
v -10 6 -2.5
v -10 14 2.5
v -10 14 -2.5
v -10 16 2.5
v -10 16 -2.5
v -9 3 2.5
v -9 3 -2.5
v -9 4 2.5
v -9 4 -2.5
v -9 16 2.5
v -9 16 -2.5
v -9 17 2.5
v -9 17 -2.5
v -8 2 2.5
v -8 2 -2.5
v -8 3 2.5
v -8 3 -2.5
v -8 17 2.5
v -8 17 -2.5
v -8 18 2.5
v -8 18 -2.5
v -7 6 2.5
v -7 6 1.5
v -7 6 -1.5
v -7 6 -2.5
v -7 7 2.5
v -7 7 1.5
v -7 7 -1.5
v -7 7 -2.5
v -7 13 2.5
v -7 13 1.5
v -7 13 -1.5
v -7 13 -2.5
v -7 14 2.5
v -7 14 1.5
v -7 14 -1.5
v -7 14 -2.5
v -5 1 2.5
v -5 1 -2.5
v -5 2 2.5
v -5 2 -2.5
v -5 7 2.5
v -5 7 1.5
v -5 7 -1.5
v -5 7 -2.5
v -5 8 2.5
v -5 8 1.5
v -5 8 -1.5
v -5 8 -2.5
v -5 12 2.5
v -5 12 1.5
v -5 12 -1.5
v -5 12 -2.5
v -5 13 2.5
v -5 13 1.5
v -5 13 -1.5
v -5 13 -2.5
v -5 18 2.5
v -5 18 -2.5
v -5 19 2.5
v -5 19 -2.5
v -4 0 2.5
v -4 0 -2.5
v -4 1 2.5
v -4 1 -2.5
v -4 19 2.5
v -4 19 -2.5
v -4 20 2.5
v -4 20 -2.5
v -2 8 2.5
v -2 8 1.5
v -2 8 -1.5
v -2 8 -2.5
v -2 9 2.5
v -2 9 1.5
v -2 9 -1.5
v -2 9 -2.5
v -2 11 2.5
v -2 11 1.5
v -2 11 -1.5
v -2 11 -2.5
v -2 12 2.5
v -2 12 1.5
v -2 12 -1.5
v -2 12 -2.5
v 1 9 2.5
v 1 9 1.5
v 1 9 -1.5
v 1 9 -2.5
v 1 11 2.5
v 1 11 1.5
v 1 11 -1.5
v 1 11 -2.5
v 4 0 2.5
v 4 0 -2.5
v 4 1 2.5
v 4 1 -2.5
v 4 19 2.5
v 4 19 -2.5
v 4 20 2.5
v 4 20 -2.5
v 5 1 2.5
v 5 1 -2.5
v 5 2 2.5
v 5 2 -2.5
v 5 18 2.5
v 5 18 -2.5
v 5 19 2.5
v 5 19 -2.5
v 8 2 2.5
v 8 2 -2.5
v 8 4 2.5
v 8 4 -2.5
v 8 17 2.5
v 8 17 -2.5
v 8 18 2.5
v 8 18 -2.5
v 9 16 2.5
v 9 16 -2.5
v 9 17 2.5
v 9 17 -2.5
v 10 4 2.5
v 10 4 -2.5
v 10 7 2.5
v 10 7 -2.5
v 10 13 2.5
v 10 13 -2.5
v 10 16 2.5
v 10 16 -2.5
v 11 7 2.5
v 11 7 -2.5
v 11 13 2.5
v 11 13 -2.5
v -10 4 2.5
v -10 6 2.5
v -10 14 2.5
v -10 16 2.5
v -9 3 2.5
v -9 4 2.5
v -9 16 2.5
v -9 17 2.5
v -8 2 2.5
v -8 3 2.5
v -8 17 2.5
v -8 18 2.5
v -7 2 2.5
v -7 3 2.5
v -7 6 2.5
v -7 7 2.5
v -7 13 2.5
v -7 14 2.5
v -7 17 2.5
v -7 18 2.5
v -5 1 2.5
v -5 2 2.5
v -5 7 2.5
v -5 8 2.5
v -5 12 2.5
v -5 13 2.5
v -5 18 2.5
v -5 19 2.5
v -4 0 2.5
v -4 1 2.5
v -4 19 2.5
v -4 20 2.5
v -2 8 2.5
v -2 9 2.5
v -2 11 2.5
v -2 12 2.5
v 1 9 2.5
v 1 11 2.5
v 2 3 2.5
v 2 4 2.5
v 2 5 2.5
v 2 16 2.5
v 2 17 2.5
v 3 13 2.5
v 3 16 2.5
v 4 0 2.5
v 4 1 2.5
v 4 13 2.5
v 4 16 2.5
v 4 17 2.5
v 4 19 2.5
v 4 20 2.5
v 5 1 2.5
v 5 2 2.5
v 5 3 2.5
v 5 5 2.5
v 5 7 2.5
v 5 18 2.5
v 5 19 2.5
v 7 5 2.5
v 7 7 2.5
v 7 11 2.5
v 7 13 2.5
v 7 16 2.5
v 7 17 2.5
v 8 2 2.5
v 8 4 2.5
v 8 17 2.5
v 8 18 2.5
v 9 11 2.5
v 9 13 2.5
v 9 16 2.5
v 9 17 2.5
v 10 4 2.5
v 10 7 2.5
v 10 13 2.5
v 10 16 2.5
v 11 7 2.5
v 11 13 2.5
v -10 4 -2.5
v -10 6 -2.5
v -10 14 -2.5
v -10 16 -2.5
v -9 3 -2.5
v -9 4 -2.5
v -9 16 -2.5
v -9 17 -2.5
v -8 2 -2.5
v -8 3 -2.5
v -8 17 -2.5
v -8 18 -2.5
v -7 2 -2.5
v -7 3 -2.5
v -7 6 -2.5
v -7 7 -2.5
v -7 13 -2.5
v -7 14 -2.5
v -7 17 -2.5
v -7 18 -2.5
v -5 1 -2.5
v -5 2 -2.5
v -5 7 -2.5
v -5 8 -2.5
v -5 12 -2.5
v -5 13 -2.5
v -5 18 -2.5
v -5 19 -2.5
v -4 0 -2.5
v -4 1 -2.5
v -4 19 -2.5
v -4 20 -2.5
v -2 8 -2.5
v -2 9 -2.5
v -2 11 -2.5
v -2 12 -2.5
v 1 9 -2.5
v 1 11 -2.5
v 2 3 -2.5
v 2 4 -2.5
v 2 5 -2.5
v 2 16 -2.5
v 2 17 -2.5
v 3 13 -2.5
v 3 16 -2.5
v 4 0 -2.5
v 4 1 -2.5
v 4 13 -2.5
v 4 16 -2.5
v 4 17 -2.5
v 4 19 -2.5
v 4 20 -2.5
v 5 1 -2.5
v 5 2 -2.5
v 5 3 -2.5
v 5 5 -2.5
v 5 7 -2.5
v 5 18 -2.5
v 5 19 -2.5
v 7 5 -2.5
v 7 7 -2.5
v 7 11 -2.5
v 7 13 -2.5
v 7 16 -2.5
v 7 17 -2.5
v 8 2 -2.5
v 8 4 -2.5
v 8 17 -2.5
v 8 18 -2.5
v 9 11 -2.5
v 9 13 -2.5
v 9 16 -2.5
v 9 17 -2.5
v 10 4 -2.5
v 10 7 -2.5
v 10 13 -2.5
v 10 16 -2.5
v 11 7 -2.5
v 11 13 -2.5
v -4 0 2.5
v 4 0 2.5
v -4 0 -2.5
v 4 0 -2.5
v -5 1 2.5
v -4 1 2.5
v 4 1 2.5
v 5 1 2.5
v -5 1 -2.5
v -4 1 -2.5
v 4 1 -2.5
v 5 1 -2.5
v -8 2 2.5
v -7 2 2.5
v -5 2 2.5
v 5 2 2.5
v 8 2 2.5
v -8 2 -2.5
v -7 2 -2.5
v -5 2 -2.5
v 5 2 -2.5
v 8 2 -2.5
v -9 3 2.5
v -8 3 2.5
v -9 3 -2.5
v -8 3 -2.5
v -10 4 2.5
v -9 4 2.5
v 8 4 2.5
v 10 4 2.5
v -10 4 -2.5
v -9 4 -2.5
v 8 4 -2.5
v 10 4 -2.5
v 10 7 2.5
v 11 7 2.5
v 10 7 -2.5
v 11 7 -2.5
v -2 11 2.5
v 1 11 2.5
v -2 11 1.5
v 1 11 1.5
v -2 11 -1.5
v 1 11 -1.5
v -2 11 -2.5
v 1 11 -2.5
v -5 12 2.5
v -2 12 2.5
v -5 12 1.5
v -2 12 1.5
v -5 12 -1.5
v -2 12 -1.5
v -5 12 -2.5
v -2 12 -2.5
v -7 13 2.5
v -5 13 2.5
v -7 13 1.5
v -5 13 1.5
v -7 13 -1.5
v -5 13 -1.5
v -7 13 -2.5
v -5 13 -2.5
v -10 14 2.5
v -7 14 2.5
v -8 14 1.5
v -7 14 1.5
v -8 14 -1.5
v -7 14 -1.5
v -10 14 -2.5
v -7 14 -2.5
v -10 6 2.5
v -7 6 2.5
v -8 6 1.5
v -7 6 1.5
v -8 6 -1.5
v -7 6 -1.5
v -10 6 -2.5
v -7 6 -2.5
v -7 7 2.5
v -5 7 2.5
v -7 7 1.5
v -5 7 1.5
v -7 7 -1.5
v -5 7 -1.5
v -7 7 -2.5
v -5 7 -2.5
v -5 8 2.5
v -2 8 2.5
v -5 8 1.5
v -2 8 1.5
v -5 8 -1.5
v -2 8 -1.5
v -5 8 -2.5
v -2 8 -2.5
v -2 9 2.5
v 1 9 2.5
v -2 9 1.5
v 1 9 1.5
v -2 9 -1.5
v 1 9 -1.5
v -2 9 -2.5
v 1 9 -2.5
v 10 13 2.5
v 11 13 2.5
v 10 13 -2.5
v 11 13 -2.5
v -10 16 2.5
v -9 16 2.5
v 9 16 2.5
v 10 16 2.5
v -10 16 -2.5
v -9 16 -2.5
v 9 16 -2.5
v 10 16 -2.5
v -9 17 2.5
v -8 17 2.5
v 8 17 2.5
v 9 17 2.5
v -9 17 -2.5
v -8 17 -2.5
v 8 17 -2.5
v 9 17 -2.5
v -8 18 2.5
v -7 18 2.5
v -5 18 2.5
v 5 18 2.5
v 8 18 2.5
v -8 18 -2.5
v -7 18 -2.5
v -5 18 -2.5
v 5 18 -2.5
v 8 18 -2.5
v -5 19 2.5
v -4 19 2.5
v 4 19 2.5
v 5 19 2.5
v -5 19 -2.5
v -4 19 -2.5
v 4 19 -2.5
v 5 19 -2.5
v -4 20 2.5
v 4 20 2.5
v -4 20 -2.5
v 4 20 -2.5

# faces
f 3/3/1 2/3/1 1/3/1
f 4/3/1 2/3/1 3/3/1
f 7/3/1 6/3/1 5/3/1
f 8/3/1 6/3/1 7/3/1
f 11/1/1 10/1/1 9/1/1
f 12/1/1 10/1/1 11/1/1
f 15/1/1 14/1/1 13/1/1
f 16/1/1 14/1/1 15/1/1
f 19/3/1 18/3/1 17/3/1
f 20/3/1 18/3/1 19/3/1
f 23/3/1 22/3/1 21/3/1
f 24/3/1 22/3/1 23/3/1
f 29/3/1 26/3/1 25/3/1
f 30/4/1 27/4/1 26/4/1
f 30/3/1 26/3/1 29/3/1
f 31/3/1 28/3/1 27/3/1
f 31/4/1 27/4/1 30/4/1
f 32/3/1 28/3/1 31/3/1
f 37/3/1 34/3/1 33/3/1
f 38/4/1 35/4/1 34/4/1
f 38/3/1 34/3/1 37/3/1
f 39/3/1 36/3/1 35/3/1
f 39/4/1 35/4/1 38/4/1
f 40/3/1 36/3/1 39/3/1
f 43/1/1 42/1/1 41/1/1
f 44/1/1 42/1/1 43/1/1
f 49/3/1 46/3/1 45/3/1
f 50/4/1 47/4/1 46/4/1
f 50/3/1 46/3/1 49/3/1
f 51/3/1 48/3/1 47/3/1
f 51/4/1 47/4/1 50/4/1
f 52/3/1 48/3/1 51/3/1
f 57/3/1 54/3/1 53/3/1
f 58/4/1 55/4/1 54/4/1
f 58/3/1 54/3/1 57/3/1
f 59/3/1 56/3/1 55/3/1
f 59/4/1 55/4/1 58/4/1
f 60/3/1 56/3/1 59/3/1
f 63/1/1 62/1/1 61/1/1
f 64/1/1 62/1/1 63/1/1
f 67/1/1 66/1/1 65/1/1
f 68/1/1 66/1/1 67/1/1
f 71/1/1 70/1/1 69/1/1
f 72/1/1 70/1/1 71/1/1
f 77/3/1 74/3/1 73/3/1
f 78/4/1 75/4/1 74/4/1
f 78/3/1 74/3/1 77/3/1
f 79/3/1 76/3/1 75/3/1
f 79/4/1 75/4/1 78/4/1
f 80/3/1 76/3/1 79/3/1
f 85/3/1 82/3/1 81/3/1
f 86/4/1 83/4/1 82/4/1
f 86/3/1 82/3/1 85/3/1
f 87/3/1 84/3/1 83/3/1
f 87/4/1 83/4/1 86/4/1
f 88/3/1 84/3/1 87/3/1
f 93/3/1 90/3/1 89/3/1
f 93/3/1 92/3/1 91/3/1
f 93/3/1 91/3/1 90/3/1
f 94/3/1 92/3/1 93/3/1
f 95/3/1 92/3/1 94/3/1
f 96/3/1 92/3/1 95/3/1
f 97/1/2 98/1/2 99/1/2
f 99/1/2 98/1/2 100/1/2
f 101/1/2 102/1/2 103/1/2
f 103/1/2 102/1/2 104/1/2
f 105/1/2 106/1/2 107/1/2
f 107/1/2 106/1/2 108/1/2
f 109/1/2 110/1/2 111/1/2
f 111/1/2 110/1/2 112/1/2
f 113/1/2 114/1/2 115/1/2
f 115/1/2 114/1/2 116/1/2
f 117/1/2 118/1/2 119/1/2
f 119/1/2 118/1/2 120/1/2
f 121/1/2 122/1/2 123/1/2
f 123/1/2 122/1/2 124/1/2
f 125/1/2 126/1/2 127/1/2
f 127/1/2 126/1/2 128/1/2
f 129/1/2 130/1/2 131/1/2
f 131/1/2 130/1/2 132/1/2
f 133/1/2 134/1/2 135/1/2
f 135/1/2 134/1/2 136/1/2
f 142/3/3 138/3/3 137/3/3
f 143/3/3 140/3/3 139/3/3
f 146/1/3 142/1/3 141/1/3
f 147/1/3 144/1/3 143/1/3
f 149/3/3 146/3/3 145/3/3
f 150/1/3 142/1/3 146/1/3
f 150/3/3 146/3/3 149/3/3
f 151/3/3 138/3/3 142/3/3
f 154/3/3 143/3/3 139/3/3
f 155/3/3 148/3/3 147/3/3
f 155/1/3 147/1/3 143/1/3
f 156/3/3 148/3/3 155/3/3
f 158/1/3 150/1/3 149/1/3
f 159/3/3 152/3/3 151/3/3
f 162/3/3 154/3/3 153/3/3
f 163/1/3 156/1/3 155/1/3
f 166/1/3 158/1/3 157/1/3
f 167/1/3 164/1/3 163/1/3
f 169/3/3 160/3/3 159/3/3
f 172/3/3 162/3/3 161/3/3
f 173/3/3 170/3/3 169/3/3
f 174/3/3 172/3/3 171/3/3
f 175/1/3 142/1/3 150/1/3
f 175/1/3 166/1/3 165/1/3
f 175/1/3 150/1/3 158/1/3
f 175/1/3 158/1/3 166/1/3
f 176/3/3 174/3/3 173/3/3
f 176/1/3 142/1/3 175/1/3
f 176/3/3 151/3/3 142/3/3
f 176/3/3 173/3/3 169/3/3
f 176/3/3 169/3/3 159/3/3
f 176/3/3 159/3/3 151/3/3
f 177/3/3 174/3/3 176/3/3
f 178/1/3 168/1/3 167/1/3
f 178/3/3 174/3/3 177/3/3
f 178/3/3 172/3/3 174/3/3
f 178/3/3 143/3/3 154/3/3
f 178/1/3 163/1/3 155/1/3
f 178/3/3 154/3/3 162/3/3
f 178/1/3 155/1/3 143/1/3
f 178/3/3 162/3/3 172/3/3
f 178/1/3 167/1/3 163/1/3
f 179/1/3 168/1/3 178/1/3
f 180/1/3 178/1/3 177/1/3
f 181/5/3 179/5/3 178/5/3
f 181/1/3 178/1/3 180/1/3
f 182/1/3 175/1/3 165/1/3
f 183/1/3 175/1/3 182/1/3
f 184/1/3 180/1/3 177/1/3
f 184/3/3 181/3/3 180/3/3
f 185/5/3 179/5/3 181/5/3
f 185/3/3 181/3/3 184/3/3
f 186/1/3 168/1/3 179/1/3
f 186/5/3 179/5/3 185/5/3
f 187/1/3 168/1/3 186/1/3
f 188/1/3 168/1/3 187/1/3
f 189/1/3 175/1/3 183/1/3
f 190/1/3 175/1/3 189/1/3
f 191/5/3 177/5/3 176/5/3
f 191/1/3 175/1/3 190/1/3
f 191/5/3 176/5/3 175/5/3
f 192/1/3 184/1/3 177/1/3
f 192/5/3 177/5/3 191/5/3
f 193/1/3 184/1/3 192/1/3
f 194/1/3 187/1/3 186/1/3
f 195/1/3 187/1/3 194/1/3
f 196/1/3 191/1/3 190/1/3
f 196/1/3 192/1/3 191/1/3
f 196/5/3 193/5/3 192/5/3
f 197/1/3 184/1/3 193/1/3
f 197/5/3 193/5/3 196/5/3
f 198/1/3 184/1/3 197/1/3
f 199/5/3 185/5/3 184/5/3
f 199/1/3 184/1/3 198/1/3
f 200/3/3 186/3/3 185/3/3
f 200/5/3 185/5/3 199/5/3
f 201/1/3 194/1/3 186/1/3
f 201/3/3 186/3/3 200/3/3
f 202/1/3 198/1/3 197/1/3
f 202/1/3 196/1/3 190/1/3
f 202/1/3 197/1/3 196/1/3
f 203/1/3 198/1/3 202/1/3
f 204/1/3 200/1/3 199/1/3
f 204/1/3 194/1/3 201/1/3
f 204/1/3 201/1/3 200/1/3
f 205/1/3 194/1/3 204/1/3
f 206/1/3 198/1/3 203/1/3
f 206/5/3 199/5/3 198/5/3
f 207/1/3 204/1/3 199/1/3
f 207/5/3 199/5/3 206/5/3
f 208/1/3 204/1/3 207/1/3
f 209/1/3 204/1/3 208/1/3
f 210/1/3 206/1/3 203/1/3
f 210/1/3 207/1/3 206/1/3
f 210/1/3 208/1/3 207/1/3
f 211/1/3 208/1/3 210/1/3
f 212/1/3 208/1/3 211/1/3
f 213/1/3 208/1/3 212/1/3
f 214/1/3 212/1/3 211/1/3
f 215/1/3 212/1/3 214/1/3
f 216/3/4 217/3/4 221/3/4
f 218/3/4 219/3/4 222/3/4
f 220/1/4 221/1/4 225/1/4
f 222/1/4 223/1/4 226/1/4
f 224/3/4 225/3/4 228/3/4
f 225/1/4 221/1/4 229/1/4
f 228/3/4 225/3/4 229/3/4
f 221/3/4 217/3/4 230/3/4
f 218/3/4 222/3/4 233/3/4
f 226/3/4 227/3/4 234/3/4
f 222/1/4 226/1/4 234/1/4
f 234/3/4 227/3/4 235/3/4
f 228/1/4 229/1/4 237/1/4
f 230/3/4 231/3/4 238/3/4
f 232/3/4 233/3/4 241/3/4
f 234/1/4 235/1/4 242/1/4
f 236/1/4 237/1/4 245/1/4
f 242/1/4 243/1/4 246/1/4
f 238/3/4 239/3/4 248/3/4
f 240/3/4 241/3/4 251/3/4
f 248/3/4 249/3/4 252/3/4
f 250/3/4 251/3/4 253/3/4
f 229/1/4 221/1/4 254/1/4
f 244/1/4 245/1/4 254/1/4
f 237/1/4 229/1/4 254/1/4
f 245/1/4 237/1/4 254/1/4
f 252/3/4 253/3/4 255/3/4
f 254/1/4 221/1/4 255/1/4
f 221/3/4 230/3/4 255/3/4
f 248/3/4 252/3/4 255/3/4
f 238/3/4 248/3/4 255/3/4
f 230/3/4 238/3/4 255/3/4
f 255/3/4 253/3/4 256/3/4
f 246/1/4 247/1/4 257/1/4
f 256/3/4 253/3/4 257/3/4
f 253/3/4 251/3/4 257/3/4
f 233/3/4 222/3/4 257/3/4
f 234/1/4 242/1/4 257/1/4
f 241/3/4 233/3/4 257/3/4
f 222/1/4 234/1/4 257/1/4
f 251/3/4 241/3/4 257/3/4
f 242/1/4 246/1/4 257/1/4
f 257/1/4 247/1/4 258/1/4
f 256/1/4 257/1/4 259/1/4
f 257/5/4 258/5/4 260/5/4
f 259/1/4 257/1/4 260/1/4
f 244/1/4 254/1/4 261/1/4
f 261/1/4 254/1/4 262/1/4
f 256/1/4 259/1/4 263/1/4
f 259/3/4 260/3/4 263/3/4
f 260/5/4 258/5/4 264/5/4
f 263/3/4 260/3/4 264/3/4
f 258/1/4 247/1/4 265/1/4
f 264/5/4 258/5/4 265/5/4
f 265/1/4 247/1/4 266/1/4
f 266/1/4 247/1/4 267/1/4
f 262/1/4 254/1/4 268/1/4
f 268/1/4 254/1/4 269/1/4
f 255/5/4 256/5/4 270/5/4
f 269/1/4 254/1/4 270/1/4
f 254/5/4 255/5/4 270/5/4
f 256/1/4 263/1/4 271/1/4
f 270/5/4 256/5/4 271/5/4
f 271/1/4 263/1/4 272/1/4
f 265/1/4 266/1/4 273/1/4
f 273/1/4 266/1/4 274/1/4
f 269/1/4 270/1/4 275/1/4
f 270/1/4 271/1/4 275/1/4
f 271/5/4 272/5/4 275/5/4
f 272/1/4 263/1/4 276/1/4
f 275/5/4 272/5/4 276/5/4
f 276/1/4 263/1/4 277/1/4
f 263/5/4 264/5/4 278/5/4
f 277/1/4 263/1/4 278/1/4
f 264/3/4 265/3/4 279/3/4
f 278/5/4 264/5/4 279/5/4
f 265/1/4 273/1/4 280/1/4
f 279/3/4 265/3/4 280/3/4
f 276/1/4 277/1/4 281/1/4
f 269/1/4 275/1/4 281/1/4
f 275/1/4 276/1/4 281/1/4
f 281/1/4 277/1/4 282/1/4
f 278/1/4 279/1/4 283/1/4
f 280/1/4 273/1/4 283/1/4
f 279/1/4 280/1/4 283/1/4
f 283/1/4 273/1/4 284/1/4
f 282/1/4 277/1/4 285/1/4
f 277/5/4 278/5/4 285/5/4
f 278/1/4 283/1/4 286/1/4
f 285/5/4 278/5/4 286/5/4
f 286/1/4 283/1/4 287/1/4
f 287/1/4 283/1/4 288/1/4
f 282/1/4 285/1/4 289/1/4
f 285/1/4 286/1/4 289/1/4
f 286/1/4 287/1/4 289/1/4
f 289/1/4 287/1/4 290/1/4
f 290/1/4 287/1/4 291/1/4
f 291/1/4 287/1/4 292/1/4
f 290/1/4 291/1/4 293/1/4
f 293/1/4 291/1/4 294/1/4
f 297/1/5 296/1/5 295/1/5
f 298/1/5 296/1/5 297/1/5
f 303/1/5 300/1/5 299/1/5
f 304/1/5 300/1/5 303/1/5
f 305/1/5 302/1/5 301/1/5
f 306/1/5 302/1/5 305/1/5
f 312/3/5 308/3/5 307/3/5
f 313/1/5 309/1/5 308/1/5
f 313/3/5 308/3/5 312/3/5
f 314/1/5 309/1/5 313/1/5
f 315/1/5 311/1/5 310/1/5
f 316/1/5 311/1/5 315/1/5
f 319/1/5 318/1/5 317/1/5
f 320/1/5 318/1/5 319/1/5
f 325/3/5 322/3/5 321/3/5
f 326/3/5 322/3/5 325/3/5
f 327/1/5 324/1/5 323/1/5
f 328/1/5 324/1/5 327/1/5
f 331/1/5 330/1/5 329/1/5
f 332/1/5 330/1/5 331/1/5
f 335/3/5 334/3/5 333/3/5
f 336/3/5 334/3/5 335/3/5
f 337/4/5 336/4/5 335/4/5
f 338/4/5 336/4/5 337/4/5
f 339/3/5 338/3/5 337/3/5
f 340/3/5 338/3/5 339/3/5
f 343/3/5 342/3/5 341/3/5
f 344/3/5 342/3/5 343/3/5
f 345/4/5 344/4/5 343/4/5
f 346/4/5 344/4/5 345/4/5
f 347/3/5 346/3/5 345/3/5
f 348/3/5 346/3/5 347/3/5
f 351/3/5 350/3/5 349/3/5
f 352/3/5 350/3/5 351/3/5
f 353/4/5 352/4/5 351/4/5
f 354/4/5 352/4/5 353/4/5
f 355/3/5 354/3/5 353/3/5
f 356/3/5 354/3/5 355/3/5
f 359/3/5 358/3/5 357/3/5
f 360/3/5 358/3/5 359/3/5
f 361/3/5 359/3/5 357/3/5
f 361/4/5 360/4/5 359/4/5
f 362/4/5 360/4/5 361/4/5
f 363/3/5 361/3/5 357/3/5
f 363/3/5 362/3/5 361/3/5
f 364/3/5 362/3/5 363/3/5
f 365/3/6 366/3/6 367/3/6
f 367/3/6 366/3/6 368/3/6
f 365/3/6 367/3/6 369/3/6
f 367/4/6 368/4/6 369/4/6
f 369/4/6 368/4/6 370/4/6
f 365/3/6 369/3/6 371/3/6
f 369/3/6 370/3/6 371/3/6
f 371/3/6 370/3/6 372/3/6
f 373/3/6 374/3/6 375/3/6
f 375/3/6 374/3/6 376/3/6
f 375/4/6 376/4/6 377/4/6
f 377/4/6 376/4/6 378/4/6
f 377/3/6 378/3/6 379/3/6
f 379/3/6 378/3/6 380/3/6
f 381/3/6 382/3/6 383/3/6
f 383/3/6 382/3/6 384/3/6
f 383/4/6 384/4/6 385/4/6
f 385/4/6 384/4/6 386/4/6
f 385/3/6 386/3/6 387/3/6
f 387/3/6 386/3/6 388/3/6
f 389/3/6 390/3/6 391/3/6
f 391/3/6 390/3/6 392/3/6
f 391/4/6 392/4/6 393/4/6
f 393/4/6 392/4/6 394/4/6
f 393/3/6 394/3/6 395/3/6
f 395/3/6 394/3/6 396/3/6
f 397/1/6 398/1/6 399/1/6
f 399/1/6 398/1/6 400/1/6
f 401/3/6 402/3/6 405/3/6
f 405/3/6 402/3/6 406/3/6
f 403/1/6 404/1/6 407/1/6
f 407/1/6 404/1/6 408/1/6
f 409/1/6 410/1/6 413/1/6
f 413/1/6 410/1/6 414/1/6
f 411/1/6 412/1/6 415/1/6
f 415/1/6 412/1/6 416/1/6
f 417/3/6 418/3/6 422/3/6
f 418/1/6 419/1/6 423/1/6
f 422/3/6 418/3/6 423/3/6
f 423/1/6 419/1/6 424/1/6
f 420/1/6 421/1/6 425/1/6
f 425/1/6 421/1/6 426/1/6
f 427/1/6 428/1/6 431/1/6
f 431/1/6 428/1/6 432/1/6
f 429/1/6 430/1/6 433/1/6
f 433/1/6 430/1/6 434/1/6
f 435/1/6 436/1/6 437/1/6
f 437/1/6 436/1/6 438/1/6
