# MagicaVoxel @ Ephtracy

# material
mtllib PacMan-02.mtl
usemtl palette

# normals
vn -1 0 0
vn 1 0 0
vn 0 0 1
vn 0 0 -1
vn 0 -1 0
vn 0 1 0

# texcoords
vt 0.0175781 0.5
vt 0.970703 0.5
vt 0.974609 0.5
vt 0.978516 0.5
vt 0.982422 0.5

# verts
v -11 7 2.5
v -11 7 -2.5
v -11 13 2.5
v -11 13 -2.5
v -10 4 2.5
v -10 4 -2.5
v -10 7 2.5
v -10 7 -2.5
v -10 13 2.5
v -10 13 -2.5
v -10 16 2.5
v -10 16 -2.5
v -8 2 2.5
v -8 2 -2.5
v -8 3 2.5
v -8 3 -1.5
v -8 4 2.5
v -8 4 1.5
v -8 4 -1.5
v -8 4 -2.5
v -8 16 2.5
v -8 16 1.5
v -8 16 -1.5
v -8 16 -2.5
v -8 17 2.5
v -8 17 -2.5
v -8 18 2.5
v -8 18 -2.5
v -5 1 2.5
v -5 1 -2.5
v -5 2 2.5
v -5 2 -2.5
v -5 18 2.5
v -5 18 -2.5
v -5 19 2.5
v -5 19 -2.5
v -4 0 2.5
v -4 0 -2.5
v -4 1 2.5
v -4 1 -2.5
v -4 19 2.5
v -4 19 -2.5
v -4 20 2.5
v -4 20 -2.5
v 4 0 2.5
v 4 0 -2.5
v 4 1 2.5
v 4 1 -2.5
v 4 19 2.5
v 4 19 -2.5
v 4 20 2.5
v 4 20 -2.5
v 5 1 2.5
v 5 1 -2.5
v 5 2 2.5
v 5 2 -2.5
v 5 18 2.5
v 5 18 -2.5
v 5 19 2.5
v 5 19 -2.5
v 8 2 2.5
v 8 2 -2.5
v 8 4 2.5
v 8 4 -2.5
v 8 17 2.5
v 8 17 -2.5
v 8 18 2.5
v 8 18 -2.5
v 9 16 2.5
v 9 16 -2.5
v 9 17 2.5
v 9 17 -2.5
v 10 4 2.5
v 10 4 -2.5
v 10 7 2.5
v 10 7 -2.5
v 10 13 2.5
v 10 13 -2.5
v 10 16 2.5
v 10 16 -2.5
v 11 7 2.5
v 11 7 -2.5
v 11 13 2.5
v 11 13 -2.5
v -11 7 2.5
v -11 13 2.5
v -10 4 2.5
v -10 7 2.5
v -10 13 2.5
v -10 16 2.5
v -8 2 2.5
v -8 3 2.5
v -8 4 2.5
v -8 16 2.5
v -8 17 2.5
v -8 18 2.5
v -7 2 2.5
v -7 3 2.5
v -7 17 2.5
v -7 18 2.5
v -5 1 2.5
v -5 2 2.5
v -5 18 2.5
v -5 19 2.5
v -4 0 2.5
v -4 1 2.5
v -4 19 2.5
v -4 20 2.5
v -2 13 2.5
v -2 16 2.5
v -1 12 2.5
v -1 13 2.5
v 2 3 2.5
v 2 4 2.5
v 2 5 2.5
v 2 10 2.5
v 2 11 2.5
v 2 12 2.5
v 2 16 2.5
v 2 17 2.5
v 3 10 2.5
v 3 11 2.5
v 3 13 2.5
v 3 16 2.5
v 4 0 2.5
v 4 1 2.5
v 4 13 2.5
v 4 16 2.5
v 4 17 2.5
v 4 19 2.5
v 4 20 2.5
v 5 1 2.5
v 5 2 2.5
v 5 3 2.5
v 5 5 2.5
v 5 7 2.5
v 5 18 2.5
v 5 19 2.5
v 7 5 2.5
v 7 7 2.5
v 7 11 2.5
v 7 13 2.5
v 7 16 2.5
v 7 17 2.5
v 8 2 2.5
v 8 4 2.5
v 8 17 2.5
v 8 18 2.5
v 9 11 2.5
v 9 13 2.5
v 9 16 2.5
v 9 17 2.5
v 10 4 2.5
v 10 7 2.5
v 10 13 2.5
v 10 16 2.5
v 11 7 2.5
v 11 13 2.5
v -11 7 -2.5
v -11 13 -2.5
v -10 4 -2.5
v -10 7 -2.5
v -10 13 -2.5
v -10 16 -2.5
v -8 2 -2.5
v -8 4 -2.5
v -8 16 -2.5
v -8 17 -2.5
v -8 18 -2.5
v -7 2 -2.5
v -7 3 -2.5
v -7 17 -2.5
v -7 18 -2.5
v -5 1 -2.5
v -5 2 -2.5
v -5 18 -2.5
v -5 19 -2.5
v -4 0 -2.5
v -4 1 -2.5
v -4 19 -2.5
v -4 20 -2.5
v 2 3 -2.5
v 2 5 -2.5
v 2 10 -2.5
v 2 11 -2.5
v 2 16 -2.5
v 2 17 -2.5
v 3 10 -2.5
v 3 11 -2.5
v 3 13 -2.5
v 3 16 -2.5
v 4 0 -2.5
v 4 1 -2.5
v 4 13 -2.5
v 4 16 -2.5
v 4 17 -2.5
v 4 19 -2.5
v 4 20 -2.5
v 5 1 -2.5
v 5 2 -2.5
v 5 3 -2.5
v 5 5 -2.5
v 5 7 -2.5
v 5 18 -2.5
v 5 19 -2.5
v 7 5 -2.5
v 7 7 -2.5
v 7 11 -2.5
v 7 13 -2.5
v 7 16 -2.5
v 7 17 -2.5
v 8 2 -2.5
v 8 4 -2.5
v 8 17 -2.5
v 8 18 -2.5
v 9 11 -2.5
v 9 13 -2.5
v 9 16 -2.5
v 9 17 -2.5
v 10 4 -2.5
v 10 7 -2.5
v 10 13 -2.5
v 10 16 -2.5
v 11 7 -2.5
v 11 13 -2.5
v -4 0 2.5
v 4 0 2.5
v -4 0 -2.5
v 4 0 -2.5
v -5 1 2.5
v -4 1 2.5
v 4 1 2.5
v 5 1 2.5
v -5 1 -2.5
v -4 1 -2.5
v 4 1 -2.5
v 5 1 -2.5
v -8 2 2.5
v -7 2 2.5
v -5 2 2.5
v 5 2 2.5
v 8 2 2.5
v -8 2 -2.5
v -7 2 -2.5
v -5 2 -2.5
v 5 2 -2.5
v 8 2 -2.5
v -10 4 2.5
v -8 4 2.5
v 8 4 2.5
v 10 4 2.5
v -9 4 1.5
v -8 4 1.5
v -9 4 -1.5
v -8 4 -1.5
v -10 4 -2.5
v -8 4 -2.5
v 8 4 -2.5
v 10 4 -2.5
v -11 7 2.5
v -10 7 2.5
v 10 7 2.5
v 11 7 2.5
v -11 7 -2.5
v -10 7 -2.5
v 10 7 -2.5
v 11 7 -2.5
v -11 13 2.5
v -10 13 2.5
v 10 13 2.5
v 11 13 2.5
v -11 13 -2.5
v -10 13 -2.5
v 10 13 -2.5
v 11 13 -2.5
v -10 16 2.5
v -8 16 2.5
v 9 16 2.5
v 10 16 2.5
v -9 16 1.5
v -8 16 1.5
v -9 16 -1.5
v -8 16 -1.5
v -10 16 -2.5
v -8 16 -2.5
v 9 16 -2.5
v 10 16 -2.5
v 8 17 2.5
v 9 17 2.5
v 8 17 -2.5
v 9 17 -2.5
v -8 18 2.5
v -7 18 2.5
v -5 18 2.5
v 5 18 2.5
v 8 18 2.5
v -8 18 -2.5
v -7 18 -2.5
v -5 18 -2.5
v 5 18 -2.5
v 8 18 -2.5
v -5 19 2.5
v -4 19 2.5
v 4 19 2.5
v 5 19 2.5
v -5 19 -2.5
v -4 19 -2.5
v 4 19 -2.5
v 5 19 -2.5
v -4 20 2.5
v 4 20 2.5
v -4 20 -2.5
v 4 20 -2.5

# faces
f 3/3/1 2/3/1 1/3/1
f 4/3/1 2/3/1 3/3/1
f 7/3/1 6/3/1 5/3/1
f 8/3/1 6/3/1 7/3/1
f 11/3/1 10/3/1 9/3/1
f 12/3/1 10/3/1 11/3/1
f 15/3/1 14/3/1 13/3/1
f 16/3/1 14/3/1 15/3/1
f 17/1/1 16/1/1 15/1/1
f 18/1/1 16/1/1 17/1/1
f 19/3/1 14/3/1 16/3/1
f 19/1/1 16/1/1 18/1/1
f 20/3/1 14/3/1 19/3/1
f 25/1/1 22/1/1 21/1/1
f 25/1/1 24/1/1 23/1/1
f 25/1/1 23/1/1 22/1/1
f 26/1/1 24/1/1 25/1/1
f 27/3/1 26/3/1 25/3/1
f 28/3/1 26/3/1 27/3/1
f 31/1/1 30/1/1 29/1/1
f 32/1/1 30/1/1 31/1/1
f 35/1/1 34/1/1 33/1/1
f 36/1/1 34/1/1 35/1/1
f 39/1/1 38/1/1 37/1/1
f 40/1/1 38/1/1 39/1/1
f 43/1/1 42/1/1 41/1/1
f 44/1/1 42/1/1 43/1/1
f 45/1/2 46/1/2 47/1/2
f 47/1/2 46/1/2 48/1/2
f 49/1/2 50/1/2 51/1/2
f 51/1/2 50/1/2 52/1/2
f 53/1/2 54/1/2 55/1/2
f 55/1/2 54/1/2 56/1/2
f 57/1/2 58/1/2 59/1/2
f 59/1/2 58/1/2 60/1/2
f 61/1/2 62/1/2 63/1/2
f 63/1/2 62/1/2 64/1/2
f 65/1/2 66/1/2 67/1/2
f 67/1/2 66/1/2 68/1/2
f 69/1/2 70/1/2 71/1/2
f 71/1/2 70/1/2 72/1/2
f 73/1/2 74/1/2 75/1/2
f 75/1/2 74/1/2 76/1/2
f 77/1/2 78/1/2 79/1/2
f 79/1/2 78/1/2 80/1/2
f 81/1/2 82/1/2 83/1/2
f 83/1/2 82/1/2 84/1/2
f 88/3/3 86/3/3 85/3/3
f 89/3/3 86/3/3 88/3/3
f 93/3/3 88/3/3 87/3/3
f 93/3/3 89/3/3 88/3/3
f 93/3/3 90/3/3 89/3/3
f 94/3/3 90/3/3 93/3/3
f 97/3/3 92/3/3 91/3/3
f 98/1/3 93/1/3 92/1/3
f 98/3/3 92/3/3 97/3/3
f 99/3/3 96/3/3 95/3/3
f 99/1/3 95/1/3 94/1/3
f 100/3/3 96/3/3 99/3/3
f 102/1/3 98/1/3 97/1/3
f 103/1/3 100/1/3 99/1/3
f 106/1/3 102/1/3 101/1/3
f 107/1/3 104/1/3 103/1/3
f 109/3/3 94/3/3 93/3/3
f 110/1/3 108/1/3 107/1/3
f 110/3/3 94/3/3 109/3/3
f 110/1/3 103/1/3 99/1/3
f 110/1/3 107/1/3 103/1/3
f 110/1/3 99/1/3 94/1/3
f 111/3/3 109/3/3 93/3/3
f 112/1/3 110/1/3 109/1/3
f 112/3/3 109/3/3 111/3/3
f 113/1/3 93/1/3 98/1/3
f 113/1/3 102/1/3 106/1/3
f 113/1/3 106/1/3 105/1/3
f 113/1/3 98/1/3 102/1/3
f 114/3/3 111/3/3 93/3/3
f 114/1/3 93/1/3 113/1/3
f 115/3/3 111/3/3 114/3/3
f 116/3/3 111/3/3 115/3/3
f 117/3/3 111/3/3 116/3/3
f 118/1/3 112/1/3 111/1/3
f 118/3/3 111/3/3 117/3/3
f 119/1/3 110/1/3 112/1/3
f 119/1/3 112/1/3 118/1/3
f 119/1/3 108/1/3 110/1/3
f 120/1/3 108/1/3 119/1/3
f 121/1/3 116/1/3 115/1/3
f 121/3/3 117/3/3 116/3/3
f 122/1/3 118/1/3 117/1/3
f 122/3/3 117/3/3 121/3/3
f 122/1/3 119/1/3 118/1/3
f 123/1/3 119/1/3 122/1/3
f 124/5/3 120/5/3 119/5/3
f 124/1/3 119/1/3 123/1/3
f 125/1/3 113/1/3 105/1/3
f 126/1/3 113/1/3 125/1/3
f 127/1/3 123/1/3 122/1/3
f 127/1/3 122/1/3 121/1/3
f 127/3/3 124/3/3 123/3/3
f 128/5/3 120/5/3 124/5/3
f 128/3/3 124/3/3 127/3/3
f 129/1/3 108/1/3 120/1/3
f 129/5/3 120/5/3 128/5/3
f 130/1/3 108/1/3 129/1/3
f 131/1/3 108/1/3 130/1/3
f 132/1/3 113/1/3 126/1/3
f 133/1/3 113/1/3 132/1/3
f 134/5/3 114/5/3 113/5/3
f 134/1/3 113/1/3 133/1/3
f 134/5/3 115/5/3 114/5/3
f 135/1/3 121/1/3 115/1/3
f 135/5/3 115/5/3 134/5/3
f 135/1/3 127/1/3 121/1/3
f 136/1/3 127/1/3 135/1/3
f 137/1/3 130/1/3 129/1/3
f 138/1/3 130/1/3 137/1/3
f 139/1/3 134/1/3 133/1/3
f 139/1/3 135/1/3 134/1/3
f 139/5/3 136/5/3 135/5/3
f 140/1/3 127/1/3 136/1/3
f 140/5/3 136/5/3 139/5/3
f 141/1/3 127/1/3 140/1/3
f 142/5/3 128/5/3 127/5/3
f 142/1/3 127/1/3 141/1/3
f 143/3/3 129/3/3 128/3/3
f 143/5/3 128/5/3 142/5/3
f 144/1/3 137/1/3 129/1/3
f 144/3/3 129/3/3 143/3/3
f 145/1/3 141/1/3 140/1/3
f 145/1/3 139/1/3 133/1/3
f 145/1/3 140/1/3 139/1/3
f 146/1/3 141/1/3 145/1/3
f 147/1/3 137/1/3 144/1/3
f 147/1/3 143/1/3 142/1/3
f 147/1/3 144/1/3 143/1/3
f 148/1/3 137/1/3 147/1/3
f 149/1/3 141/1/3 146/1/3
f 149/5/3 142/5/3 141/5/3
f 150/1/3 147/1/3 142/1/3
f 150/5/3 142/5/3 149/5/3
f 151/1/3 147/1/3 150/1/3
f 152/1/3 147/1/3 151/1/3
f 153/1/3 149/1/3 146/1/3
f 153/1/3 150/1/3 149/1/3
f 153/1/3 151/1/3 150/1/3
f 154/1/3 151/1/3 153/1/3
f 155/1/3 151/1/3 154/1/3
f 156/1/3 151/1/3 155/1/3
f 157/1/3 155/1/3 154/1/3
f 158/1/3 155/1/3 157/1/3
f 159/3/4 160/3/4 162/3/4
f 162/3/4 160/3/4 163/3/4
f 161/3/4 162/3/4 166/3/4
f 163/3/4 164/3/4 166/3/4
f 162/3/4 163/3/4 166/3/4
f 166/3/4 164/3/4 167/3/4
f 165/3/4 166/3/4 170/3/4
f 166/3/4 167/3/4 170/3/4
f 170/3/4 167/3/4 171/3/4
f 168/3/4 169/3/4 172/3/4
f 167/1/4 168/1/4 172/1/4
f 172/3/4 169/3/4 173/3/4
f 170/1/4 171/1/4 175/1/4
f 172/1/4 173/1/4 176/1/4
f 174/1/4 175/1/4 179/1/4
f 176/1/4 177/1/4 180/1/4
f 171/3/4 167/3/4 182/3/4
f 178/1/4 179/1/4 182/1/4
f 175/1/4 171/1/4 182/1/4
f 179/1/4 175/1/4 182/1/4
f 182/3/4 167/3/4 183/3/4
f 183/3/4 167/3/4 184/3/4
f 184/3/4 167/3/4 185/3/4
f 180/1/4 181/1/4 186/1/4
f 185/3/4 167/3/4 186/3/4
f 172/1/4 176/1/4 186/1/4
f 167/1/4 172/1/4 186/1/4
f 176/1/4 180/1/4 186/1/4
f 186/1/4 181/1/4 187/1/4
f 184/3/4 185/3/4 188/3/4
f 183/1/4 184/1/4 188/1/4
f 185/1/4 186/1/4 189/1/4
f 188/3/4 185/3/4 189/3/4
f 189/1/4 186/1/4 190/1/4
f 186/5/4 187/5/4 191/5/4
f 190/1/4 186/1/4 191/1/4
f 178/1/4 182/1/4 192/1/4
f 192/1/4 182/1/4 193/1/4
f 189/1/4 190/1/4 194/1/4
f 188/1/4 189/1/4 194/1/4
f 190/3/4 191/3/4 194/3/4
f 191/5/4 187/5/4 195/5/4
f 194/3/4 191/3/4 195/3/4
f 187/1/4 181/1/4 196/1/4
f 195/5/4 187/5/4 196/5/4
f 196/1/4 181/1/4 197/1/4
f 197/1/4 181/1/4 198/1/4
f 193/1/4 182/1/4 199/1/4
f 199/1/4 182/1/4 200/1/4
f 182/5/4 183/5/4 201/5/4
f 200/1/4 182/1/4 201/1/4
f 188/1/4 194/1/4 202/1/4
f 201/5/4 183/5/4 202/5/4
f 183/1/4 188/1/4 202/1/4
f 202/1/4 194/1/4 203/1/4
f 196/1/4 197/1/4 204/1/4
f 204/1/4 197/1/4 205/1/4
f 200/1/4 201/1/4 206/1/4
f 201/1/4 202/1/4 206/1/4
f 202/5/4 203/5/4 206/5/4
f 203/1/4 194/1/4 207/1/4
f 206/5/4 203/5/4 207/5/4
f 207/1/4 194/1/4 208/1/4
f 194/5/4 195/5/4 209/5/4
f 208/1/4 194/1/4 209/1/4
f 195/3/4 196/3/4 210/3/4
f 209/5/4 195/5/4 210/5/4
f 196/1/4 204/1/4 211/1/4
f 210/3/4 196/3/4 211/3/4
f 207/1/4 208/1/4 212/1/4
f 200/1/4 206/1/4 212/1/4
f 206/1/4 207/1/4 212/1/4
f 212/1/4 208/1/4 213/1/4
f 211/1/4 204/1/4 214/1/4
f 209/1/4 210/1/4 214/1/4
f 210/1/4 211/1/4 214/1/4
f 214/1/4 204/1/4 215/1/4
f 213/1/4 208/1/4 216/1/4
f 208/5/4 209/5/4 216/5/4
f 209/1/4 214/1/4 217/1/4
f 216/5/4 209/5/4 217/5/4
f 217/1/4 214/1/4 218/1/4
f 218/1/4 214/1/4 219/1/4
f 213/1/4 216/1/4 220/1/4
f 216/1/4 217/1/4 220/1/4
f 217/1/4 218/1/4 220/1/4
f 220/1/4 218/1/4 221/1/4
f 221/1/4 218/1/4 222/1/4
f 222/1/4 218/1/4 223/1/4
f 221/1/4 222/1/4 224/1/4
f 224/1/4 222/1/4 225/1/4
f 228/1/5 227/1/5 226/1/5
f 229/1/5 227/1/5 228/1/5
f 234/1/5 231/1/5 230/1/5
f 235/1/5 231/1/5 234/1/5
f 236/1/5 233/1/5 232/1/5
f 237/1/5 233/1/5 236/1/5
f 243/3/5 239/3/5 238/3/5
f 244/1/5 240/1/5 239/1/5
f 244/3/5 239/3/5 243/3/5
f 245/1/5 240/1/5 244/1/5
f 246/1/5 242/1/5 241/1/5
f 247/1/5 242/1/5 246/1/5
f 252/3/5 249/3/5 248/3/5
f 253/3/5 249/3/5 252/3/5
f 254/3/5 252/3/5 248/3/5
f 254/4/5 253/4/5 252/4/5
f 255/4/5 253/4/5 254/4/5
f 256/3/5 254/3/5 248/3/5
f 256/3/5 255/3/5 254/3/5
f 257/3/5 255/3/5 256/3/5
f 258/1/5 251/1/5 250/1/5
f 259/1/5 251/1/5 258/1/5
f 264/3/5 261/3/5 260/3/5
f 265/3/5 261/3/5 264/3/5
f 266/1/5 263/1/5 262/1/5
f 267/1/5 263/1/5 266/1/5
f 268/3/6 269/3/6 272/3/6
f 272/3/6 269/3/6 273/3/6
f 270/1/6 271/1/6 274/1/6
f 274/1/6 271/1/6 275/1/6
f 276/3/6 277/3/6 280/3/6
f 280/3/6 277/3/6 281/3/6
f 276/3/6 280/3/6 282/3/6
f 280/4/6 281/4/6 282/4/6
f 282/4/6 281/4/6 283/4/6
f 276/3/6 282/3/6 284/3/6
f 282/3/6 283/3/6 284/3/6
f 284/3/6 283/3/6 285/3/6
f 278/1/6 279/1/6 286/1/6
f 286/1/6 279/1/6 287/1/6
f 288/1/6 289/1/6 290/1/6
f 290/1/6 289/1/6 291/1/6
f 292/3/6 293/3/6 297/3/6
f 293/1/6 294/1/6 298/1/6
f 297/3/6 293/3/6 298/3/6
f 298/1/6 294/1/6 299/1/6
f 295/1/6 296/1/6 300/1/6
f 300/1/6 296/1/6 301/1/6
f 302/1/6 303/1/6 306/1/6
f 306/1/6 303/1/6 307/1/6
f 304/1/6 305/1/6 308/1/6
f 308/1/6 305/1/6 309/1/6
f 310/1/6 311/1/6 312/1/6
f 312/1/6 311/1/6 313/1/6
