# MagicaVoxel @ Ephtracy

# group
g GrenadeInstance

# material
mtllib GrenadeInstance.mtl
usemtl palette

# normals
vn -1 0 0
vn 1 0 0
vn 0 0 1
vn 0 0 -1
vn 0 -1 0
vn 0 1 0

# texcoords
vt 0.939453 0.5
vt 0.970703 0.5
vt 0.974609 0.5
vt 0.978516 0.5
vt 0.982422 0.5
vt 0.990234 0.5
vt 0.994141 0.5

# verts
v -11 8 3
v -11 8 -3
v -11 18 3
v -11 18 -3
v -9 6 3
v -9 6 -3
v -9 8 3
v -9 8 -3
v -9 18 3
v -9 18 -3
v -9 20 3
v -9 20 -3
v -7 4 3
v -7 4 -3
v -7 6 3
v -7 6 -3
v -7 20 3
v -7 20 -3
v -7 22 3
v -7 22 -3
v -5 2 3
v -5 2 -3
v -5 4 3
v -5 4 -3
v -3 22 3
v -3 22 -3
v -3 24 3
v -3 24 -3
v -1 24 3
v -1 24 -3
v -1 26 3
v -1 26 -3
v 1 26 3
v 1 26 -3
v 1 28 3
v 1 28 -3
v 9 22 3
v 9 22 -3
v 9 24 3
v 9 24 -3
v 9 26 3
v 9 26 -3
v 1 24 3
v 1 24 -3
v 1 26 3
v 1 26 -3
v 3 22 3
v 3 22 -3
v 3 24 3
v 3 24 -3
v 5 2 3
v 5 2 -3
v 5 4 3
v 5 4 -3
v 7 4 3
v 7 4 -3
v 7 6 3
v 7 6 -3
v 7 20 3
v 7 20 -3
v 7 22 3
v 7 22 -3
v 9 6 3
v 9 6 -3
v 9 8 3
v 9 8 -3
v 9 18 3
v 9 18 -3
v 9 20 3
v 9 20 -3
v 9 27 3
v 9 27 -3
v 9 28 3
v 9 28 -3
v 11 8 3
v 11 8 -3
v 11 18 3
v 11 18 -3
v 11 22 3
v 11 22 -3
v 11 24 3
v 11 24 -3
v 11 27 3
v 11 27 -3
v -11 8 3
v -11 18 3
v -9 6 3
v -9 8 3
v -9 18 3
v -9 20 3
v -7 4 3
v -7 6 3
v -7 8 3
v -7 10 3
v -7 20 3
v -7 22 3
v -5 2 3
v -5 4 3
v -5 6 3
v -5 8 3
v -5 10 3
v -5 12 3
v -5 18 3
v -3 4 3
v -3 6 3
v -3 8 3
v -3 10 3
v -3 12 3
v -3 18 3
v -3 22 3
v -3 24 3
v -1 4 3
v -1 6 3
v -1 8 3
v -1 10 3
v -1 24 3
v -1 26 3
v 1 16 3
v 1 18 3
v 1 24 3
v 1 26 3
v 1 28 3
v 3 14 3
v 3 16 3
v 3 18 3
v 3 20 3
v 3 22 3
v 3 24 3
v 5 2 3
v 5 4 3
v 5 14 3
v 5 16 3
v 5 18 3
v 5 20 3
v 7 4 3
v 7 6 3
v 7 8 3
v 7 10 3
v 7 16 3
v 7 18 3
v 7 20 3
v 7 22 3
v 9 6 3
v 9 8 3
v 9 10 3
v 9 18 3
v 9 20 3
v 9 22 3
v 9 24 3
v 9 26 3
v 9 27 3
v 9 28 3
v 11 8 3
v 11 18 3
v 11 22 3
v 11 24 3
v 11 27 3
v -11 8 -3
v -11 18 -3
v -9 6 -3
v -9 8 -3
v -9 18 -3
v -9 20 -3
v -7 4 -3
v -7 6 -3
v -7 8 -3
v -7 10 -3
v -7 20 -3
v -7 22 -3
v -5 2 -3
v -5 4 -3
v -5 6 -3
v -5 8 -3
v -5 10 -3
v -5 12 -3
v -5 18 -3
v -3 4 -3
v -3 6 -3
v -3 8 -3
v -3 10 -3
v -3 12 -3
v -3 18 -3
v -3 22 -3
v -3 24 -3
v -1 4 -3
v -1 6 -3
v -1 8 -3
v -1 10 -3
v -1 24 -3
v -1 26 -3
v 1 16 -3
v 1 18 -3
v 1 24 -3
v 1 26 -3
v 1 28 -3
v 3 14 -3
v 3 16 -3
v 3 18 -3
v 3 20 -3
v 3 22 -3
v 3 24 -3
v 5 2 -3
v 5 4 -3
v 5 14 -3
v 5 16 -3
v 5 18 -3
v 5 20 -3
v 7 4 -3
v 7 6 -3
v 7 8 -3
v 7 10 -3
v 7 16 -3
v 7 18 -3
v 7 20 -3
v 7 22 -3
v 9 6 -3
v 9 8 -3
v 9 10 -3
v 9 18 -3
v 9 20 -3
v 9 22 -3
v 9 24 -3
v 9 26 -3
v 9 27 -3
v 9 28 -3
v 11 8 -3
v 11 18 -3
v 11 22 -3
v 11 24 -3
v 11 27 -3
v -5 2 3
v 5 2 3
v -5 2 -3
v 5 2 -3
v -7 4 3
v -5 4 3
v 5 4 3
v 7 4 3
v -7 4 -3
v -5 4 -3
v 5 4 -3
v 7 4 -3
v -9 6 3
v -7 6 3
v 7 6 3
v 9 6 3
v -9 6 -3
v -7 6 -3
v 7 6 -3
v 9 6 -3
v -11 8 3
v -9 8 3
v 9 8 3
v 11 8 3
v -11 8 -3
v -9 8 -3
v 9 8 -3
v 11 8 -3
v 9 22 3
v 11 22 3
v 9 22 -3
v 11 22 -3
v 1 26 3
v 9 26 3
v 1 26 -3
v 9 26 -3
v -11 18 3
v -9 18 3
v 9 18 3
v 11 18 3
v -11 18 -3
v -9 18 -3
v 9 18 -3
v 11 18 -3
v -9 20 3
v -7 20 3
v 7 20 3
v 9 20 3
v -9 20 -3
v -7 20 -3
v 7 20 -3
v 9 20 -3
v -7 22 3
v -3 22 3
v 3 22 3
v 7 22 3
v -7 22 -3
v -3 22 -3
v 3 22 -3
v 7 22 -3
v -3 24 3
v -1 24 3
v 1 24 3
v 3 24 3
v -3 24 -3
v -1 24 -3
v 1 24 -3
v 3 24 -3
v -1 26 3
v 1 26 3
v -1 26 -3
v 1 26 -3
v 9 27 3
v 11 27 3
v 9 27 -3
v 11 27 -3
v 1 28 3
v 9 28 3
v 1 28 -3
v 9 28 -3

# faces
f 3/7/1 2/7/1 1/7/1
f 4/7/1 2/7/1 3/7/1
f 7/7/1 6/7/1 5/7/1
f 8/7/1 6/7/1 7/7/1
f 11/7/1 10/7/1 9/7/1
f 12/7/1 10/7/1 11/7/1
f 15/7/1 14/7/1 13/7/1
f 16/7/1 14/7/1 15/7/1
f 19/7/1 18/7/1 17/7/1
f 20/7/1 18/7/1 19/7/1
f 23/7/1 22/7/1 21/7/1
f 24/7/1 22/7/1 23/7/1
f 27/7/1 26/7/1 25/7/1
f 28/7/1 26/7/1 27/7/1
f 31/5/1 30/5/1 29/5/1
f 32/5/1 30/5/1 31/5/1
f 35/5/1 34/5/1 33/5/1
f 36/5/1 34/5/1 35/5/1
f 39/2/1 38/2/1 37/2/1
f 40/2/1 38/2/1 39/2/1
f 41/3/1 40/3/1 39/3/1
f 42/3/1 40/3/1 41/3/1
f 43/5/2 44/5/2 45/5/2
f 45/5/2 44/5/2 46/5/2
f 47/7/2 48/7/2 49/7/2
f 49/7/2 48/7/2 50/7/2
f 51/7/2 52/7/2 53/7/2
f 53/7/2 52/7/2 54/7/2
f 55/7/2 56/7/2 57/7/2
f 57/7/2 56/7/2 58/7/2
f 59/1/2 60/1/2 61/1/2
f 61/1/2 60/1/2 62/1/2
f 63/7/2 64/7/2 65/7/2
f 65/7/2 64/7/2 66/7/2
f 67/1/2 68/1/2 69/1/2
f 69/1/2 68/1/2 70/1/2
f 71/5/2 72/5/2 73/5/2
f 73/5/2 72/5/2 74/5/2
f 75/7/2 76/7/2 77/7/2
f 77/7/2 76/7/2 78/7/2
f 79/2/2 80/2/2 81/2/2
f 81/2/2 80/2/2 82/2/2
f 81/3/2 82/3/2 83/3/2
f 83/3/2 82/3/2 84/3/2
f 88/7/3 86/7/3 85/7/3
f 89/7/3 86/7/3 88/7/3
f 92/7/3 88/7/3 87/7/3
f 92/7/3 90/7/3 89/7/3
f 92/7/3 89/7/3 88/7/3
f 93/7/3 90/7/3 92/7/3
f 94/7/3 90/7/3 93/7/3
f 95/7/3 90/7/3 94/7/3
f 98/7/3 92/7/3 91/7/3
f 98/7/3 93/7/3 92/7/3
f 99/7/3 93/7/3 98/7/3
f 100/4/3 94/4/3 93/4/3
f 100/7/3 93/7/3 99/7/3
f 101/7/3 96/7/3 95/7/3
f 101/4/3 94/4/3 100/4/3
f 101/7/3 95/7/3 94/7/3
f 102/7/3 96/7/3 101/7/3
f 103/7/3 96/7/3 102/7/3
f 104/7/3 98/7/3 97/7/3
f 104/7/3 99/7/3 98/7/3
f 105/4/3 100/4/3 99/4/3
f 105/7/3 99/7/3 104/7/3
f 106/7/3 101/7/3 100/7/3
f 106/4/3 100/4/3 105/4/3
f 106/7/3 102/7/3 101/7/3
f 107/7/3 102/7/3 106/7/3
f 108/1/3 103/1/3 102/1/3
f 108/7/3 102/7/3 107/7/3
f 109/7/3 96/7/3 103/7/3
f 109/1/3 103/1/3 108/1/3
f 110/7/3 96/7/3 109/7/3
f 112/7/3 104/7/3 97/7/3
f 112/1/3 105/1/3 104/1/3
f 113/7/3 107/7/3 106/7/3
f 113/1/3 105/1/3 112/1/3
f 113/7/3 106/7/3 105/7/3
f 114/7/3 107/7/3 113/7/3
f 115/1/3 108/1/3 107/1/3
f 115/7/3 107/7/3 114/7/3
f 115/1/3 110/1/3 109/1/3
f 115/1/3 109/1/3 108/1/3
f 116/7/3 111/7/3 110/7/3
f 118/1/3 110/1/3 115/1/3
f 118/1/3 115/1/3 114/1/3
f 119/1/3 110/1/3 118/1/3
f 120/5/3 117/5/3 116/5/3
f 120/7/3 116/7/3 110/7/3
f 121/5/3 117/5/3 120/5/3
f 123/1/3 118/1/3 114/1/3
f 124/4/3 119/4/3 118/4/3
f 124/1/3 118/1/3 123/1/3
f 125/1/3 110/1/3 119/1/3
f 125/4/3 119/4/3 124/4/3
f 126/1/3 110/1/3 125/1/3
f 127/7/3 120/7/3 110/7/3
f 127/1/3 110/1/3 126/1/3
f 128/7/3 120/7/3 127/7/3
f 129/7/3 114/7/3 113/7/3
f 129/7/3 112/7/3 97/7/3
f 129/7/3 113/7/3 112/7/3
f 130/7/3 114/7/3 129/7/3
f 131/4/3 124/4/3 123/4/3
f 131/1/3 123/1/3 114/1/3
f 132/1/3 125/1/3 124/1/3
f 132/4/3 124/4/3 131/4/3
f 133/4/3 126/4/3 125/4/3
f 133/1/3 125/1/3 132/1/3
f 134/1/3 127/1/3 126/1/3
f 134/4/3 126/4/3 133/4/3
f 135/7/3 114/7/3 130/7/3
f 136/7/3 114/7/3 135/7/3
f 137/1/3 131/1/3 114/1/3
f 137/7/3 114/7/3 136/7/3
f 137/1/3 132/1/3 131/1/3
f 138/1/3 132/1/3 137/1/3
f 139/4/3 133/4/3 132/4/3
f 139/1/3 132/1/3 138/1/3
f 140/1/3 134/1/3 133/1/3
f 140/4/3 133/4/3 139/4/3
f 141/1/3 127/1/3 134/1/3
f 141/1/3 134/1/3 140/1/3
f 142/1/3 127/1/3 141/1/3
f 143/7/3 138/7/3 137/7/3
f 143/7/3 137/7/3 136/7/3
f 144/7/3 138/7/3 143/7/3
f 145/1/3 140/1/3 139/1/3
f 145/7/3 138/7/3 144/7/3
f 145/1/3 141/1/3 140/1/3
f 145/1/3 139/1/3 138/1/3
f 146/1/3 141/1/3 145/1/3
f 147/1/3 141/1/3 146/1/3
f 150/5/3 122/5/3 121/5/3
f 151/5/3 122/5/3 150/5/3
f 152/5/3 122/5/3 151/5/3
f 153/7/3 146/7/3 145/7/3
f 153/7/3 145/7/3 144/7/3
f 154/7/3 146/7/3 153/7/3
f 155/2/3 149/2/3 148/2/3
f 156/3/3 151/3/3 150/3/3
f 156/2/3 149/2/3 155/2/3
f 156/3/3 150/3/3 149/3/3
f 157/3/3 151/3/3 156/3/3
f 158/7/4 159/7/4 161/7/4
f 161/7/4 159/7/4 162/7/4
f 160/7/4 161/7/4 165/7/4
f 162/7/4 163/7/4 165/7/4
f 161/7/4 162/7/4 165/7/4
f 165/7/4 163/7/4 166/7/4
f 166/7/4 163/7/4 167/7/4
f 167/7/4 163/7/4 168/7/4
f 164/7/4 165/7/4 171/7/4
f 165/7/4 166/7/4 171/7/4
f 171/7/4 166/7/4 172/7/4
f 166/4/4 167/4/4 173/4/4
f 172/7/4 166/7/4 173/7/4
f 168/7/4 169/7/4 174/7/4
f 173/4/4 167/4/4 174/4/4
f 167/7/4 168/7/4 174/7/4
f 174/7/4 169/7/4 175/7/4
f 175/7/4 169/7/4 176/7/4
f 170/7/4 171/7/4 177/7/4
f 171/7/4 172/7/4 177/7/4
f 172/4/4 173/4/4 178/4/4
f 177/7/4 172/7/4 178/7/4
f 173/7/4 174/7/4 179/7/4
f 178/4/4 173/4/4 179/4/4
f 174/7/4 175/7/4 179/7/4
f 179/7/4 175/7/4 180/7/4
f 175/1/4 176/1/4 181/1/4
f 180/7/4 175/7/4 181/7/4
f 176/7/4 169/7/4 182/7/4
f 181/1/4 176/1/4 182/1/4
f 182/7/4 169/7/4 183/7/4
f 170/7/4 177/7/4 185/7/4
f 177/1/4 178/1/4 185/1/4
f 179/7/4 180/7/4 186/7/4
f 185/1/4 178/1/4 186/1/4
f 178/7/4 179/7/4 186/7/4
f 186/7/4 180/7/4 187/7/4
f 180/1/4 181/1/4 188/1/4
f 187/7/4 180/7/4 188/7/4
f 182/1/4 183/1/4 188/1/4
f 181/1/4 182/1/4 188/1/4
f 183/7/4 184/7/4 189/7/4
f 188/1/4 183/1/4 191/1/4
f 187/1/4 188/1/4 191/1/4
f 191/1/4 183/1/4 192/1/4
f 189/5/4 190/5/4 193/5/4
f 183/7/4 189/7/4 193/7/4
f 193/5/4 190/5/4 194/5/4
f 187/1/4 191/1/4 196/1/4
f 191/4/4 192/4/4 197/4/4
f 196/1/4 191/1/4 197/1/4
f 192/1/4 183/1/4 198/1/4
f 197/4/4 192/4/4 198/4/4
f 198/1/4 183/1/4 199/1/4
f 183/7/4 193/7/4 200/7/4
f 199/1/4 183/1/4 200/1/4
f 200/7/4 193/7/4 201/7/4
f 186/7/4 187/7/4 202/7/4
f 170/7/4 185/7/4 202/7/4
f 185/7/4 186/7/4 202/7/4
f 202/7/4 187/7/4 203/7/4
f 196/4/4 197/4/4 204/4/4
f 187/1/4 196/1/4 204/1/4
f 197/1/4 198/1/4 205/1/4
f 204/4/4 197/4/4 205/4/4
f 198/4/4 199/4/4 206/4/4
f 205/1/4 198/1/4 206/1/4
f 199/1/4 200/1/4 207/1/4
f 206/4/4 199/4/4 207/4/4
f 203/7/4 187/7/4 208/7/4
f 208/7/4 187/7/4 209/7/4
f 187/1/4 204/1/4 210/1/4
f 209/7/4 187/7/4 210/7/4
f 204/1/4 205/1/4 210/1/4
f 210/1/4 205/1/4 211/1/4
f 205/4/4 206/4/4 212/4/4
f 211/1/4 205/1/4 212/1/4
f 206/1/4 207/1/4 213/1/4
f 212/4/4 206/4/4 213/4/4
f 207/1/4 200/1/4 214/1/4
f 213/1/4 207/1/4 214/1/4
f 214/1/4 200/1/4 215/1/4
f 210/7/4 211/7/4 216/7/4
f 209/7/4 210/7/4 216/7/4
f 216/7/4 211/7/4 217/7/4
f 212/1/4 213/1/4 218/1/4
f 217/7/4 211/7/4 218/7/4
f 213/1/4 214/1/4 218/1/4
f 211/1/4 212/1/4 218/1/4
f 218/1/4 214/1/4 219/1/4
f 219/1/4 214/1/4 220/1/4
f 194/5/4 195/5/4 223/5/4
f 223/5/4 195/5/4 224/5/4
f 224/5/4 195/5/4 225/5/4
f 218/7/4 219/7/4 226/7/4
f 217/7/4 218/7/4 226/7/4
f 226/7/4 219/7/4 227/7/4
f 221/2/4 222/2/4 228/2/4
f 223/3/4 224/3/4 229/3/4
f 228/2/4 222/2/4 229/2/4
f 222/3/4 223/3/4 229/3/4
f 229/3/4 224/3/4 230/3/4
f 233/7/5 232/7/5 231/7/5
f 234/7/5 232/7/5 233/7/5
f 239/7/5 236/7/5 235/7/5
f 240/7/5 236/7/5 239/7/5
f 241/7/5 238/7/5 237/7/5
f 242/7/5 238/7/5 241/7/5
f 247/7/5 244/7/5 243/7/5
f 248/7/5 244/7/5 247/7/5
f 249/7/5 246/7/5 245/7/5
f 250/7/5 246/7/5 249/7/5
f 255/7/5 252/7/5 251/7/5
f 256/7/5 252/7/5 255/7/5
f 257/7/5 254/7/5 253/7/5
f 258/7/5 254/7/5 257/7/5
f 261/2/5 260/2/5 259/2/5
f 262/2/5 260/2/5 261/2/5
f 265/5/5 264/5/5 263/5/5
f 266/5/5 264/5/5 265/5/5
f 267/7/6 268/7/6 271/7/6
f 271/7/6 268/7/6 272/7/6
f 269/7/6 270/7/6 273/7/6
f 273/7/6 270/7/6 274/7/6
f 275/7/6 276/7/6 279/7/6
f 279/7/6 276/7/6 280/7/6
f 277/1/6 278/1/6 281/1/6
f 281/1/6 278/1/6 282/1/6
f 283/7/6 284/7/6 287/7/6
f 287/7/6 284/7/6 288/7/6
f 285/1/6 286/1/6 289/1/6
f 289/1/6 286/1/6 290/1/6
f 291/7/6 292/7/6 295/7/6
f 295/7/6 292/7/6 296/7/6
f 293/7/6 294/7/6 297/7/6
f 297/7/6 294/7/6 298/7/6
f 299/5/6 300/5/6 301/5/6
f 301/5/6 300/5/6 302/5/6
f 303/3/6 304/3/6 305/3/6
f 305/3/6 304/3/6 306/3/6
f 307/5/6 308/5/6 309/5/6
f 309/5/6 308/5/6 310/5/6
