# MagicaVoxel @ Ephtracy

# material
mtllib BoundaryCube.mtl
usemtl palette

# normals
vn -1 0 0
vn 1 0 0
vn 0 0 1
vn 0 0 -1
vn 0 -1 0
vn 0 1 0

# texcoords
vt 0.0878906 0.5
vt 0.0917969 0.5
vt 0.205078 0.5
vt 0.994141 0.5

# verts
v -5 0 5
v -5 0 -5
v -5 1 4
v -5 1 -4
v -5 2 3
v -5 2 2
v -5 2 -2
v -5 2 -3
v -5 3 3
v -5 3 2
v -5 3 -2
v -5 3 -3
v -5 6 -1
v -5 6 -2
v -5 7 3
v -5 7 2
v -5 7 -1
v -5 7 -2
v -5 7 -3
v -5 8 3
v -5 8 2
v -5 8 -2
v -5 8 -3
v -5 9 4
v -5 9 -4
v -5 10 5
v -5 10 -5
v 5 0 5
v 5 0 -5
v 5 1 4
v 5 1 -4
v 5 2 3
v 5 2 2
v 5 2 -2
v 5 2 -3
v 5 3 3
v 5 3 2
v 5 3 -2
v 5 3 -3
v 5 7 3
v 5 7 2
v 5 7 -2
v 5 7 -3
v 5 8 3
v 5 8 2
v 5 8 -2
v 5 8 -3
v 5 9 4
v 5 9 -4
v 5 10 5
v 5 10 -5
v -5 0 5
v -5 10 5
v -4 1 5
v -4 9 5
v -3 2 5
v -3 3 5
v -3 7 5
v -3 8 5
v -2 2 5
v -2 3 5
v -2 7 5
v -2 8 5
v 2 2 5
v 2 3 5
v 2 7 5
v 2 8 5
v 3 2 5
v 3 3 5
v 3 7 5
v 3 8 5
v 4 1 5
v 4 9 5
v 5 0 5
v 5 10 5
v -5 0 -5
v -5 10 -5
v -4 1 -5
v -4 9 -5
v -3 2 -5
v -3 3 -5
v -3 7 -5
v -3 8 -5
v -2 2 -5
v -2 3 -5
v -2 7 -5
v -2 8 -5
v 2 2 -5
v 2 3 -5
v 2 7 -5
v 2 8 -5
v 3 2 -5
v 3 3 -5
v 3 7 -5
v 3 8 -5
v 4 1 -5
v 4 9 -5
v 5 0 -5
v 5 10 -5
v -5 0 5
v 5 0 5
v -4 0 4
v 4 0 4
v -3 0 3
v -2 0 3
v 2 0 3
v 3 0 3
v -3 0 2
v -2 0 2
v 2 0 2
v 3 0 2
v -3 0 -2
v -2 0 -2
v 2 0 -2
v 3 0 -2
v -3 0 -3
v -2 0 -3
v 2 0 -3
v 3 0 -3
v -4 0 -4
v 4 0 -4
v -5 0 -5
v 5 0 -5
v -5 10 5
v 5 10 5
v -4 10 4
v 4 10 4
v -3 10 3
v -2 10 3
v 2 10 3
v 3 10 3
v -3 10 2
v -2 10 2
v 2 10 2
v 3 10 2
v -3 10 -2
v -2 10 -2
v 2 10 -2
v 3 10 -2
v -3 10 -3
v -2 10 -3
v 2 10 -3
v 3 10 -3
v -4 10 -4
v 4 10 -4
v -5 10 -5
v 5 10 -5

# faces
f 3/4/1 2/4/1 1/4/1
f 4/4/1 2/4/1 3/4/1
f 5/2/1 4/2/1 3/2/1
f 6/2/1 4/2/1 5/2/1
f 7/2/1 4/2/1 6/2/1
f 8/2/1 4/2/1 7/2/1
f 9/2/1 5/2/1 3/2/1
f 9/4/1 6/4/1 5/4/1
f 10/2/1 7/2/1 6/2/1
f 10/4/1 6/4/1 9/4/1
f 11/4/1 8/4/1 7/4/1
f 11/2/1 7/2/1 10/2/1
f 12/2/1 4/2/1 8/2/1
f 12/4/1 8/4/1 11/4/1
f 13/2/1 11/2/1 10/2/1
f 13/2/1 10/2/1 9/2/1
f 13/2/1 12/2/1 11/2/1
f 14/2/1 12/2/1 13/2/1
f 15/2/1 9/2/1 3/2/1
f 15/2/1 13/2/1 9/2/1
f 16/2/1 13/2/1 15/2/1
f 17/3/1 14/3/1 13/3/1
f 17/2/1 13/2/1 16/2/1
f 18/2/1 12/2/1 14/2/1
f 18/3/1 14/3/1 17/3/1
f 19/2/1 4/2/1 12/2/1
f 19/2/1 12/2/1 18/2/1
f 20/4/1 16/4/1 15/4/1
f 20/2/1 15/2/1 3/2/1
f 21/2/1 18/2/1 17/2/1
f 21/4/1 16/4/1 20/4/1
f 21/2/1 17/2/1 16/2/1
f 22/4/1 19/4/1 18/4/1
f 22/2/1 18/2/1 21/2/1
f 23/2/1 4/2/1 19/2/1
f 23/4/1 19/4/1 22/4/1
f 24/4/1 3/4/1 1/4/1
f 24/2/1 20/2/1 3/2/1
f 24/2/1 23/2/1 22/2/1
f 24/2/1 22/2/1 21/2/1
f 24/2/1 21/2/1 20/2/1
f 25/2/1 4/2/1 23/2/1
f 25/2/1 23/2/1 24/2/1
f 25/4/1 2/4/1 4/4/1
f 26/4/1 24/4/1 1/4/1
f 26/4/1 25/4/1 24/4/1
f 27/4/1 2/4/1 25/4/1
f 27/4/1 25/4/1 26/4/1
f 28/4/2 29/4/2 30/4/2
f 30/4/2 29/4/2 31/4/2
f 30/2/2 31/2/2 32/2/2
f 32/2/2 31/2/2 33/2/2
f 33/2/2 31/2/2 34/2/2
f 34/2/2 31/2/2 35/2/2
f 30/2/2 32/2/2 36/2/2
f 32/4/2 33/4/2 36/4/2
f 33/2/2 34/2/2 37/2/2
f 36/4/2 33/4/2 37/4/2
f 34/4/2 35/4/2 38/4/2
f 37/2/2 34/2/2 38/2/2
f 35/2/2 31/2/2 39/2/2
f 38/4/2 35/4/2 39/4/2
f 37/2/2 38/2/2 40/2/2
f 36/2/2 37/2/2 40/2/2
f 38/2/2 39/2/2 40/2/2
f 30/2/2 36/2/2 40/2/2
f 40/2/2 39/2/2 41/2/2
f 41/2/2 39/2/2 42/2/2
f 39/2/2 31/2/2 43/2/2
f 42/2/2 39/2/2 43/2/2
f 30/2/2 40/2/2 44/2/2
f 40/4/2 41/4/2 44/4/2
f 41/2/2 42/2/2 45/2/2
f 44/4/2 41/4/2 45/4/2
f 42/4/2 43/4/2 46/4/2
f 45/2/2 42/2/2 46/2/2
f 43/2/2 31/2/2 47/2/2
f 46/4/2 43/4/2 47/4/2
f 28/4/2 30/4/2 48/4/2
f 30/2/2 44/2/2 48/2/2
f 46/2/2 47/2/2 48/2/2
f 44/2/2 45/2/2 48/2/2
f 45/2/2 46/2/2 48/2/2
f 47/2/2 31/2/2 49/2/2
f 48/2/2 47/2/2 49/2/2
f 31/4/2 29/4/2 49/4/2
f 28/4/2 48/4/2 50/4/2
f 48/4/2 49/4/2 50/4/2
f 49/4/2 29/4/2 51/4/2
f 50/4/2 49/4/2 51/4/2
f 54/4/3 53/4/3 52/4/3
f 55/4/3 53/4/3 54/4/3
f 56/2/3 55/2/3 54/2/3
f 57/2/3 55/2/3 56/2/3
f 58/2/3 55/2/3 57/2/3
f 59/2/3 55/2/3 58/2/3
f 60/2/3 56/2/3 54/2/3
f 60/4/3 57/4/3 56/4/3
f 61/2/3 58/2/3 57/2/3
f 61/4/3 57/4/3 60/4/3
f 62/4/3 59/4/3 58/4/3
f 62/2/3 58/2/3 61/2/3
f 63/2/3 55/2/3 59/2/3
f 63/4/3 59/4/3 62/4/3
f 64/2/3 62/2/3 61/2/3
f 64/2/3 61/2/3 60/2/3
f 64/2/3 63/2/3 62/2/3
f 64/2/3 60/2/3 54/2/3
f 65/2/3 63/2/3 64/2/3
f 66/2/3 63/2/3 65/2/3
f 67/2/3 55/2/3 63/2/3
f 67/2/3 63/2/3 66/2/3
f 68/2/3 64/2/3 54/2/3
f 68/4/3 65/4/3 64/4/3
f 69/2/3 66/2/3 65/2/3
f 69/4/3 65/4/3 68/4/3
f 70/4/3 67/4/3 66/4/3
f 70/2/3 66/2/3 69/2/3
f 71/2/3 55/2/3 67/2/3
f 71/4/3 67/4/3 70/4/3
f 72/4/3 54/4/3 52/4/3
f 72/2/3 68/2/3 54/2/3
f 72/2/3 71/2/3 70/2/3
f 72/2/3 69/2/3 68/2/3
f 72/2/3 70/2/3 69/2/3
f 73/2/3 55/2/3 71/2/3
f 73/2/3 71/2/3 72/2/3
f 73/4/3 53/4/3 55/4/3
f 74/4/3 72/4/3 52/4/3
f 74/4/3 73/4/3 72/4/3
f 75/4/3 53/4/3 73/4/3
f 75/4/3 73/4/3 74/4/3
f 76/4/4 77/4/4 78/4/4
f 78/4/4 77/4/4 79/4/4
f 78/2/4 79/2/4 80/2/4
f 80/2/4 79/2/4 81/2/4
f 81/2/4 79/2/4 82/2/4
f 82/2/4 79/2/4 83/2/4
f 78/2/4 80/2/4 84/2/4
f 80/4/4 81/4/4 84/4/4
f 81/2/4 82/2/4 85/2/4
f 84/4/4 81/4/4 85/4/4
f 82/4/4 83/4/4 86/4/4
f 85/2/4 82/2/4 86/2/4
f 83/2/4 79/2/4 87/2/4
f 86/4/4 83/4/4 87/4/4
f 85/2/4 86/2/4 88/2/4
f 84/2/4 85/2/4 88/2/4
f 86/2/4 87/2/4 88/2/4
f 78/2/4 84/2/4 88/2/4
f 88/2/4 87/2/4 89/2/4
f 89/2/4 87/2/4 90/2/4
f 87/2/4 79/2/4 91/2/4
f 90/2/4 87/2/4 91/2/4
f 78/2/4 88/2/4 92/2/4
f 88/4/4 89/4/4 92/4/4
f 89/2/4 90/2/4 93/2/4
f 92/4/4 89/4/4 93/4/4
f 90/4/4 91/4/4 94/4/4
f 93/2/4 90/2/4 94/2/4
f 91/2/4 79/2/4 95/2/4
f 94/4/4 91/4/4 95/4/4
f 76/4/4 78/4/4 96/4/4
f 78/2/4 92/2/4 96/2/4
f 94/2/4 95/2/4 96/2/4
f 92/2/4 93/2/4 96/2/4
f 93/2/4 94/2/4 96/2/4
f 95/2/4 79/2/4 97/2/4
f 96/2/4 95/2/4 97/2/4
f 79/4/4 77/4/4 97/4/4
f 76/4/4 96/4/4 98/4/4
f 96/4/4 97/4/4 98/4/4
f 97/4/4 77/4/4 99/4/4
f 98/4/4 97/4/4 99/4/4
f 102/4/5 101/4/5 100/4/5
f 103/4/5 101/4/5 102/4/5
f 104/2/5 103/2/5 102/2/5
f 105/2/5 103/2/5 104/2/5
f 106/2/5 103/2/5 105/2/5
f 107/2/5 103/2/5 106/2/5
f 108/2/5 104/2/5 102/2/5
f 108/4/5 105/4/5 104/4/5
f 109/2/5 106/2/5 105/2/5
f 109/4/5 105/4/5 108/4/5
f 110/4/5 107/4/5 106/4/5
f 110/2/5 106/2/5 109/2/5
f 111/2/5 103/2/5 107/2/5
f 111/4/5 107/4/5 110/4/5
f 112/2/5 110/2/5 109/2/5
f 112/2/5 109/2/5 108/2/5
f 112/2/5 111/2/5 110/2/5
f 112/2/5 108/2/5 102/2/5
f 113/2/5 111/2/5 112/2/5
f 114/2/5 111/2/5 113/2/5
f 115/2/5 103/2/5 111/2/5
f 115/2/5 111/2/5 114/2/5
f 116/2/5 112/2/5 102/2/5
f 116/4/5 113/4/5 112/4/5
f 117/2/5 114/2/5 113/2/5
f 117/4/5 113/4/5 116/4/5
f 118/4/5 115/4/5 114/4/5
f 118/2/5 114/2/5 117/2/5
f 119/2/5 103/2/5 115/2/5
f 119/4/5 115/4/5 118/4/5
f 120/4/5 102/4/5 100/4/5
f 120/2/5 116/2/5 102/2/5
f 120/2/5 119/2/5 118/2/5
f 120/2/5 117/2/5 116/2/5
f 120/2/5 118/2/5 117/2/5
f 121/2/5 103/2/5 119/2/5
f 121/2/5 119/2/5 120/2/5
f 121/4/5 101/4/5 103/4/5
f 122/4/5 120/4/5 100/4/5
f 122/4/5 121/4/5 120/4/5
f 123/4/5 101/4/5 121/4/5
f 123/4/5 121/4/5 122/4/5
f 124/4/6 125/4/6 126/4/6
f 126/4/6 125/4/6 127/4/6
f 126/2/6 127/2/6 128/2/6
f 128/2/6 127/2/6 129/2/6
f 129/2/6 127/2/6 130/2/6
f 130/2/6 127/2/6 131/2/6
f 126/2/6 128/2/6 132/2/6
f 128/4/6 129/4/6 132/4/6
f 129/2/6 130/2/6 133/2/6
f 132/4/6 129/4/6 133/4/6
f 130/4/6 131/4/6 134/4/6
f 133/2/6 130/2/6 134/2/6
f 131/2/6 127/2/6 135/2/6
f 134/4/6 131/4/6 135/4/6
f 133/2/6 134/2/6 136/2/6
f 132/2/6 133/2/6 136/2/6
f 134/2/6 135/2/6 136/2/6
f 126/2/6 132/2/6 136/2/6
f 136/2/6 135/2/6 137/2/6
f 137/2/6 135/2/6 138/2/6
f 135/2/6 127/2/6 139/2/6
f 138/2/6 135/2/6 139/2/6
f 126/2/6 136/2/6 140/2/6
f 136/4/6 137/4/6 140/4/6
f 137/2/6 138/2/6 141/2/6
f 140/4/6 137/4/6 141/4/6
f 138/4/6 139/4/6 142/4/6
f 141/2/6 138/2/6 142/2/6
f 139/2/6 127/2/6 143/2/6
f 142/4/6 139/4/6 143/4/6
f 124/4/6 126/4/6 144/4/6
f 126/2/6 140/2/6 144/2/6
f 142/2/6 143/2/6 144/2/6
f 140/2/6 141/2/6 144/2/6
f 141/2/6 142/2/6 144/2/6
f 143/2/6 127/2/6 145/2/6
f 144/2/6 143/2/6 145/2/6
f 127/4/6 125/4/6 145/4/6
f 124/4/6 144/4/6 146/4/6
f 144/4/6 145/4/6 146/4/6
f 145/4/6 125/4/6 147/4/6
f 146/4/6 145/4/6 147/4/6
